<?xml version="1.0" encoding="UTF-8" standalone="no"?>
<!-- Generator: Adobe Illustrator 19.1.0, SVG Export Plug-In . SVG Version: 6.00 Build 0)  -->
<svg id="レイヤー_1" xmlns="http://www.w3.org/2000/svg" xml:space="preserve" viewBox="0 0 369.4 72" version="1.1" y="0px" x="0px" xmlns:xlink="http://www.w3.org/1999/xlink" enable-background="new 0 0 369.4 72">
	<path d="m116.5 58.7c-0.9-1.5-1.9-3.1-3-5-1.1-1.8-2.4-3.7-3.7-5.7s-2.7-4-4.1-6-2.8-4-4.2-5.9-2.8-3.7-4.1-5.4-2.5-3.2-3.7-4.4v32.4h-5.7v-41.5h4.6c1.9 2 3.9 4.3 6 7s4.3 5.4 6.3 8.2 4.1 5.6 5.9 8.3c1.9 2.7 3.4 5.1 4.7 7.2v-30.7h5.7v41.5h-4.7z"/>
	<path d="m134 21.9c-1 0-1.8-0.3-2.5-1s-1-1.5-1-2.7c0-1.1 0.3-2 1-2.7s1.5-1 2.5-1 1.8 0.3 2.5 1 1 1.5 1 2.7c0 1.1-0.4 2-1 2.7s-1.5 1-2.5 1zm2.8 36.8h-5.6v-31.2h5.6v31.2z"/>
	<path d="m159.9 59.4c-2.5 0-4.7-0.4-6.6-1.2s-3.5-1.9-4.8-3.4c-1.3-1.4-2.3-3.1-2.9-5.1s-1-4.2-1-6.6 0.3-4.6 1-6.6c0.7-2 1.7-3.7 3-5.2s2.8-2.6 4.7-3.4 3.9-1.2 6.2-1.2c1.4 0 2.8 0.1 4.2 0.4 1.4 0.2 2.7 0.6 4 1.1l-1.3 4.7c-0.8-0.4-1.8-0.7-2.9-1-1.1-0.2-2.3-0.4-3.5-0.4-3.1 0-5.5 1-7.2 2.9-1.7 2-2.5 4.8-2.5 8.6 0 1.7 0.2 3.2 0.6 4.6s1 2.6 1.8 3.6 1.9 1.8 3.1 2.3c1.3 0.5 2.8 0.8 4.7 0.8 1.5 0 2.8-0.1 4-0.4s2.1-0.6 2.8-0.9l0.8 4.7c-0.3 0.2-0.8 0.4-1.4 0.6s-1.3 0.3-2 0.5c-0.8 0.1-1.6 0.3-2.4 0.4-0.7 0.1-1.6 0.2-2.4 0.2z"/>
	<path d="m201.7 43.1c0 2.5-0.4 4.7-1.1 6.7s-1.7 3.7-3 5.1-2.8 2.5-4.6 3.3-3.8 1.2-5.9 1.2c-2.1 0-4.1-0.4-5.9-1.2s-3.3-1.9-4.6-3.3-2.3-3.2-3-5.1c-0.7-2-1.1-4.2-1.1-6.7 0-2.4 0.4-4.7 1.1-6.7s1.7-3.7 3-5.2c1.3-1.4 2.8-2.5 4.6-3.3s3.8-1.2 5.9-1.2 4.1 0.4 5.9 1.2 3.3 1.9 4.6 3.3c1.3 1.4 2.3 3.2 3 5.2 0.8 2 1.1 4.3 1.1 6.7zm-5.8 0c0-3.5-0.8-6.3-2.4-8.4s-3.7-3.1-6.4-3.1-4.9 1-6.4 3.1c-1.6 2.1-2.4 4.8-2.4 8.4 0 3.5 0.8 6.3 2.4 8.4s3.7 3.1 6.4 3.1 4.9-1 6.4-3.1c1.6-2.1 2.4-4.9 2.4-8.4z"/>
	<path d="m221.7 12.2c1.4 0 2.6 0.1 3.6 0.3s1.7 0.4 2.2 0.5l-0.8 4.8c-0.4-0.2-1-0.3-1.8-0.5s-1.7-0.3-2.8-0.3c-2.6 0-4.4 0.7-5.4 2.1s-1.6 3.3-1.6 5.7v2.7h12v4.7h-12v26.5h-5.6v-34c0-4 1-7.1 2.9-9.3 2.1-2.1 5.1-3.2 9.3-3.2zm14 9.7c-1 0-1.8-0.3-2.5-1s-1-1.5-1-2.7c0-1.1 0.3-2 1-2.7s1.5-1 2.5-1 1.8 0.3 2.5 1 1 1.5 1 2.7c0 1.1-0.4 2-1 2.7-0.7 0.7-1.5 1-2.5 1zm2.8 36.8h-5.6v-31.2h5.6v31.2z"/>
	<path d="m248.1 28.4c1.3-0.3 3-0.7 5.1-1 2.1-0.4 4.6-0.5 7.3-0.5 2.5 0 4.5 0.4 6.2 1 1.6 0.7 2.9 1.7 3.9 2.9 1 1.3 1.7 2.8 2.1 4.5 0.4 1.8 0.6 3.7 0.6 5.8v17.5h-5.6v-16.2c0-1.9-0.1-3.6-0.4-4.9-0.3-1.4-0.7-2.5-1.3-3.3s-1.4-1.4-2.4-1.8c-1-0.4-2.2-0.6-3.7-0.6-0.6 0-1.2 0-1.9 0.1-0.6 0-1.2 0.1-1.8 0.1-0.6 0.1-1.1 0.1-1.6 0.2s-0.8 0.1-1 0.2v26.3h-5.6v-30.3z"/>
	<path d="m302.5 13.2l5.6-1v45.6c-1.3 0.4-2.9 0.7-4.9 1.1s-4.3 0.5-6.9 0.5c-2.4 0-4.6-0.4-6.5-1.1s-3.6-1.8-4.9-3.2c-1.4-1.4-2.4-3.1-3.1-5.1s-1.1-4.3-1.1-6.8c0-2.4 0.3-4.6 0.9-6.6s1.5-3.7 2.7-5.1 2.7-2.6 4.4-3.4 3.7-1.2 6-1.2c1.8 0 3.4 0.2 4.8 0.7s2.4 0.9 3.1 1.4v-15.8zm0 20.9c-0.7-0.6-1.7-1.1-2.9-1.6-1.3-0.5-2.7-0.8-4.2-0.8-1.6 0-3 0.3-4.1 0.9s-2.1 1.4-2.8 2.4-1.2 2.2-1.6 3.6c-0.3 1.4-0.5 2.9-0.5 4.5 0 3.6 0.9 6.4 2.7 8.4s4.2 3 7.2 3c1.5 0 2.8-0.1 3.8-0.2s1.8-0.3 2.4-0.4v-19.8z"/>
	<path d="m316 43.2c0-2.8 0.4-5.2 1.2-7.2 0.8-2.1 1.9-3.8 3.2-5.1 1.3-1.4 2.8-2.4 4.6-3.1 1.7-0.7 3.5-1 5.3-1 4.2 0 7.4 1.3 9.6 3.9s3.4 6.6 3.4 11.9v0.9c0 0.4 0 0.7-0.1 1h-21.3c0.2 3.2 1.2 5.7 2.8 7.4s4.2 2.5 7.7 2.5c2 0 3.6-0.2 4.9-0.5s2.3-0.7 3-1l0.8 4.7c-0.7 0.4-1.9 0.7-3.6 1.1s-3.6 0.6-5.8 0.6c-2.7 0-5.1-0.4-7-1.2-2-0.8-3.6-1.9-4.9-3.4-1.3-1.4-2.2-3.1-2.8-5.1-0.7-1.9-1-4.1-1-6.4zm21.3-3.1c0-2.5-0.6-4.6-1.9-6.2s-3.1-2.4-5.4-2.4c-1.3 0-2.4 0.2-3.4 0.7s-1.8 1.1-2.5 1.9-1.2 1.7-1.6 2.8c-0.4 1-0.6 2.1-0.7 3.2h15.5z"/>
	<path d="m362.7 26.9c0.5 0 1 0 1.6 0.1s1.2 0.1 1.8 0.2 1.1 0.2 1.6 0.3 0.9 0.2 1.1 0.3l-1 4.9c-0.4-0.2-1.2-0.3-2.2-0.6-1-0.2-2.3-0.3-3.9-0.3-1 0-2.1 0.1-3.1 0.3s-1.7 0.4-2 0.4v26.2h-5.6v-29.9c1.3-0.5 3-0.9 4.9-1.3 2.1-0.4 4.3-0.6 6.8-0.6z"/>
	<path d="m53.5 58l-2.3 5.2-2.3-5.2h-10.6c-1 0-2.2-1.1-2.2-2.1v-34.8c0-1 1.2-2 2.2-2h21.1l-8.2-8.6 16.3 8.7 0.1-0.1c-6-11.3-18-19-31.7-19-19.8 0-35.9 16.1-35.9 36s16.1 36.1 35.9 36.1c11.7-0.1 22.1-6.2 28.7-14.2h-11.1z" fill="#1E88E5"/>
		<defs>
			<rect id="SVGID_1_" y="36.1" x=".1" height="35.9" width="64.9"/>
		</defs>
		<clipPath id="SVGID_2_">
			<use overflow="visible" xlink:href="#SVGID_1_"/>
		</clipPath>
		<path fill="#1976D2" d="m53.5 58l-2.3 5.2-2.3-5.2h-10.6c-1 0-2.2-1.1-2.2-2.1v-34.8c0-1 1.2-2 2.2-2h21.1l-8.2-8.6 16.3 8.7 0.1-0.1c-6-11.3-18-19-31.7-19-19.8 0-35.9 16.1-35.9 36s16.1 36.1 35.9 36.1c11.7-0.1 22.1-6.2 28.7-14.2h-11.1z" clip-path="url(#SVGID_2_)"/>
	<path d="m53.9 40.4c-1.1 0-1.9-0.8-1.9-1.8v-4.9c0-1 0.8-1.8 1.8-1.8h0.1c1 0 1.8 0.8 1.8 1.8v4.9c0 1-0.8 1.8-1.8 1.8z" fill="#1976D2"/>
</svg>
